# xmcd
#
# Track frame offsets:
#  182
#  19225
#  32922
#  43472
#  61745
#  71930
#  137272
#  170212
#  187315
#
# Disc length: 2715 seconds
#
# Revision: 5
# Processed by: cddbd v1.5.2PL0 Copyright (c) Steve Scherf et al.
# Submitted via: Collectorz.com_Music_Collector 6.11
#
DISCID=8c0a9909
DTITLE=Ten Years After - Alvin Lee and Company
DYEAR=1972
DGENRE=Blues
TTITLE0=The Sounds
TTITLE1=Rock Your Mama
TTITLE2=Hold Me Tight
TTITLE3=Standing At The Crossroads
TTITLE4=Portable People
TTITLE5=Boogie On
TTITLE6=Spider In My Web (Single Version)
TTITLE7=Hear Me Calling (Single Version)
TTITLE8=I'm Going Home (Single Version)
EXTD=
EXTT0=
EXTT1=
EXTT2=
EXTT3=
EXTT4=
EXTT5=
EXTT6=
EXTT7=
EXTT8=
PLAYORDER=
